<mxfile host="65bd71144e">
    <diagram id="n-HU4fG1coUEZPLs6XPE" name="Page-1">
        <mxGraphModel dx="883" dy="1300" grid="1" gridSize="10" guides="1" tooltips="1" connect="1" arrows="1" fold="1" page="1" pageScale="1" pageWidth="1169" pageHeight="827" background="#ffffff" math="0" shadow="0">
            <root>
                <mxCell id="0"/>
                <mxCell id="1" parent="0"/>
                <mxCell id="25" value="Program" style="swimlane;fontStyle=0;align=center;verticalAlign=top;childLayout=stackLayout;horizontal=1;startSize=30;horizontalStack=0;resizeParent=1;resizeParentMax=0;resizeLast=0;collapsible=0;marginBottom=0;html=1;fillColor=#f5f5f5;fontColor=#333333;strokeColor=#666666;" parent="1" vertex="1">
                    <mxGeometry x="36" y="-785.25" width="110" height="30.5" as="geometry"/>
                </mxCell>
                <mxCell id="174" value="&lt;span style=&quot;font-weight: 400;&quot;&gt;«interface»&lt;/span&gt;&lt;br style=&quot;font-weight: 400;&quot;&gt;&lt;span style=&quot;font-weight: 400;&quot;&gt;ICity&lt;br&gt;&lt;/span&gt;" style="swimlane;fontStyle=1;align=center;verticalAlign=middle;childLayout=stackLayout;horizontal=1;startSize=40;horizontalStack=0;resizeParent=1;resizeParentMax=0;resizeLast=0;collapsible=0;marginBottom=0;html=1;fillColor=#f5f5f5;fontColor=#333333;strokeColor=#666666;" parent="1" vertex="1">
                    <mxGeometry x="210" y="-800" width="200" height="60" as="geometry"/>
                </mxCell>
                <mxCell id="175" value="+ Accept(visitor: IVisitor): void" style="text;html=1;strokeColor=#666666;fillColor=#f5f5f5;align=left;verticalAlign=middle;spacingLeft=4;spacingRight=4;overflow=hidden;rotatable=0;points=[[0,0.5],[1,0.5]];portConstraint=eastwest;fontColor=#333333;" parent="174" vertex="1">
                    <mxGeometry y="40" width="200" height="20" as="geometry"/>
                </mxCell>
                <mxCell id="178" value="" style="endArrow=open;startArrow=none;endFill=0;startFill=0;endSize=8;html=1;verticalAlign=bottom;labelBackgroundColor=none;strokeWidth=2;sketch=0;fillColor=#f5f5f5;strokeColor=#080808;" parent="1" source="25" target="174" edge="1">
                    <mxGeometry width="160" relative="1" as="geometry">
                        <mxPoint x="136" y="-789.3713592233009" as="sourcePoint"/>
                        <mxPoint x="456" y="-779.8956310679611" as="targetPoint"/>
                    </mxGeometry>
                </mxCell>
                <mxCell id="193" value="PolishCity" style="swimlane;fontStyle=0;align=center;verticalAlign=top;childLayout=stackLayout;horizontal=1;startSize=30;horizontalStack=0;resizeParent=1;resizeParentMax=0;resizeLast=0;collapsible=0;marginBottom=0;html=1;fillColor=#f5f5f5;fontColor=#333333;strokeColor=#666666;" parent="1" vertex="1">
                    <mxGeometry x="480" y="-795" width="170" height="72" as="geometry"/>
                </mxCell>
                <mxCell id="267" value="+ City: string" style="text;html=1;strokeColor=#666666;fillColor=#f5f5f5;align=left;verticalAlign=middle;spacingLeft=4;spacingRight=4;overflow=hidden;rotatable=0;points=[[0,0.5],[1,0.5]];portConstraint=eastwest;fontColor=#333333;" vertex="1" parent="193">
                    <mxGeometry y="30" width="170" height="20" as="geometry"/>
                </mxCell>
                <mxCell id="268" value="" style="line;strokeWidth=2;align=left;verticalAlign=middle;spacingTop=-1;spacingLeft=3;spacingRight=3;rotatable=0;labelPosition=right;points=[];portConstraint=eastwest;labelBackgroundColor=#D1AEFC;labelBorderColor=none;shadow=0;" vertex="1" parent="193">
                    <mxGeometry y="50" width="170" height="2" as="geometry"/>
                </mxCell>
                <mxCell id="262" value="+ Accept(visitor: IVisitor): void" style="text;html=1;strokeColor=#666666;fillColor=#f5f5f5;align=left;verticalAlign=middle;spacingLeft=4;spacingRight=4;overflow=hidden;rotatable=0;points=[[0,0.5],[1,0.5]];portConstraint=eastwest;fontColor=#333333;" parent="193" vertex="1">
                    <mxGeometry y="52" width="170" height="20" as="geometry"/>
                </mxCell>
                <mxCell id="195" value="" style="endArrow=block;startArrow=none;endFill=0;startFill=0;endSize=8;html=1;verticalAlign=bottom;dashed=1;labelBackgroundColor=none;sketch=0;strokeWidth=2;fillColor=#f5f5f5;strokeColor=#080808;" parent="1" source="193" target="174" edge="1">
                    <mxGeometry width="160" relative="1" as="geometry">
                        <mxPoint x="-213.6111111111112" y="-494.25" as="sourcePoint"/>
                        <mxPoint x="-213.87179487179492" y="-555.25" as="targetPoint"/>
                    </mxGeometry>
                </mxCell>
                <mxCell id="204" value="&lt;span style=&quot;font-weight: 400;&quot;&gt;«interface»&lt;/span&gt;&lt;br style=&quot;font-weight: 400;&quot;&gt;&lt;span style=&quot;font-weight: 400;&quot;&gt;IVisitor&lt;br&gt;&lt;/span&gt;" style="swimlane;fontStyle=1;align=center;verticalAlign=middle;childLayout=stackLayout;horizontal=1;startSize=40;horizontalStack=0;resizeParent=1;resizeParentMax=0;resizeLast=0;collapsible=0;marginBottom=0;html=1;fillColor=#f5f5f5;fontColor=#333333;strokeColor=#666666;" parent="1" vertex="1">
                    <mxGeometry x="20" y="-679" width="240" height="120" as="geometry"/>
                </mxCell>
                <mxCell id="265" value="+ Visit(polish: PolishCity): void" style="text;html=1;strokeColor=#666666;fillColor=#f5f5f5;align=left;verticalAlign=middle;spacingLeft=4;spacingRight=4;overflow=hidden;rotatable=0;points=[[0,0.5],[1,0.5]];portConstraint=eastwest;fontColor=#333333;" vertex="1" parent="204">
                    <mxGeometry y="40" width="240" height="20" as="geometry"/>
                </mxCell>
                <mxCell id="263" value="+ Visit(netherlandCity:NetherlandCity): void" style="text;html=1;strokeColor=#666666;fillColor=#f5f5f5;align=left;verticalAlign=middle;spacingLeft=4;spacingRight=4;overflow=hidden;rotatable=0;points=[[0,0.5],[1,0.5]];portConstraint=eastwest;fontColor=#333333;" vertex="1" parent="204">
                    <mxGeometry y="60" width="240" height="20" as="geometry"/>
                </mxCell>
                <mxCell id="264" value="+ Visit(usaCity: UsaCity): void" style="text;html=1;strokeColor=#666666;fillColor=#f5f5f5;align=left;verticalAlign=middle;spacingLeft=4;spacingRight=4;overflow=hidden;rotatable=0;points=[[0,0.5],[1,0.5]];portConstraint=eastwest;fontColor=#333333;" vertex="1" parent="204">
                    <mxGeometry y="80" width="240" height="20" as="geometry"/>
                </mxCell>
                <mxCell id="205" value="+ PrintInfo(): void" style="text;html=1;strokeColor=#666666;fillColor=#f5f5f5;align=left;verticalAlign=middle;spacingLeft=4;spacingRight=4;overflow=hidden;rotatable=0;points=[[0,0.5],[1,0.5]];portConstraint=eastwest;fontColor=#333333;" parent="204" vertex="1">
                    <mxGeometry y="100" width="240" height="20" as="geometry"/>
                </mxCell>
                <mxCell id="207" value="" style="endArrow=open;startArrow=none;endFill=0;startFill=0;endSize=8;html=1;verticalAlign=bottom;labelBackgroundColor=none;strokeWidth=2;sketch=0;fillColor=#f5f5f5;strokeColor=#080808;" parent="1" source="25" target="204" edge="1">
                    <mxGeometry width="160" relative="1" as="geometry">
                        <mxPoint x="119.19430693069307" y="-744.75" as="sourcePoint"/>
                        <mxPoint x="185.70792079207922" y="-689" as="targetPoint"/>
                        <Array as="points">
                            <mxPoint x="110" y="-720"/>
                        </Array>
                    </mxGeometry>
                </mxCell>
                <mxCell id="241" value="" style="endArrow=block;startArrow=none;endFill=0;startFill=0;endSize=8;html=1;verticalAlign=bottom;dashed=1;labelBackgroundColor=none;sketch=0;strokeWidth=2;fillColor=#f5f5f5;strokeColor=#080808;" parent="1" source="258" target="204" edge="1">
                    <mxGeometry width="160" relative="1" as="geometry">
                        <mxPoint x="528.1516587677725" y="-464.75" as="sourcePoint"/>
                        <mxPoint x="512.8672985781991" y="-497" as="targetPoint"/>
                    </mxGeometry>
                </mxCell>
                <mxCell id="258" value="Visitor" style="swimlane;fontStyle=0;align=center;verticalAlign=top;childLayout=stackLayout;horizontal=1;startSize=30;horizontalStack=0;resizeParent=1;resizeParentMax=0;resizeLast=0;collapsible=0;marginBottom=0;html=1;fillColor=#f5f5f5;fontColor=#333333;strokeColor=#666666;" parent="1" vertex="1">
                    <mxGeometry x="20" y="-480" width="250" height="172" as="geometry"/>
                </mxCell>
                <mxCell id="287" value="- PolishCounter: int" style="text;html=1;strokeColor=#666666;fillColor=#f5f5f5;align=left;verticalAlign=middle;spacingLeft=4;spacingRight=4;overflow=hidden;rotatable=0;points=[[0,0.5],[1,0.5]];portConstraint=eastwest;fontColor=#333333;" vertex="1" parent="258">
                    <mxGeometry y="30" width="250" height="20" as="geometry"/>
                </mxCell>
                <mxCell id="289" value="- UsaCounter: int" style="text;html=1;strokeColor=#666666;fillColor=#f5f5f5;align=left;verticalAlign=middle;spacingLeft=4;spacingRight=4;overflow=hidden;rotatable=0;points=[[0,0.5],[1,0.5]];portConstraint=eastwest;fontColor=#333333;" vertex="1" parent="258">
                    <mxGeometry y="50" width="250" height="20" as="geometry"/>
                </mxCell>
                <mxCell id="290" value="- NetherlandCounter: int" style="text;html=1;strokeColor=#666666;fillColor=#f5f5f5;align=left;verticalAlign=middle;spacingLeft=4;spacingRight=4;overflow=hidden;rotatable=0;points=[[0,0.5],[1,0.5]];portConstraint=eastwest;fontColor=#333333;" vertex="1" parent="258">
                    <mxGeometry y="70" width="250" height="20" as="geometry"/>
                </mxCell>
                <mxCell id="288" value="" style="line;strokeWidth=2;align=left;verticalAlign=middle;spacingTop=-1;spacingLeft=3;spacingRight=3;rotatable=0;labelPosition=right;points=[];portConstraint=eastwest;labelBackgroundColor=#D1AEFC;labelBorderColor=none;shadow=0;" vertex="1" parent="258">
                    <mxGeometry y="90" width="250" height="2" as="geometry"/>
                </mxCell>
                <mxCell id="282" value="+ Visit(polish: PolishCity): void" style="text;html=1;strokeColor=#666666;fillColor=#f5f5f5;align=left;verticalAlign=middle;spacingLeft=4;spacingRight=4;overflow=hidden;rotatable=0;points=[[0,0.5],[1,0.5]];portConstraint=eastwest;fontColor=#333333;" vertex="1" parent="258">
                    <mxGeometry y="92" width="250" height="20" as="geometry"/>
                </mxCell>
                <mxCell id="283" value="+ Visit(netherlandCity:NetherlandCity): void" style="text;html=1;strokeColor=#666666;fillColor=#f5f5f5;align=left;verticalAlign=middle;spacingLeft=4;spacingRight=4;overflow=hidden;rotatable=0;points=[[0,0.5],[1,0.5]];portConstraint=eastwest;fontColor=#333333;" vertex="1" parent="258">
                    <mxGeometry y="112" width="250" height="20" as="geometry"/>
                </mxCell>
                <mxCell id="284" value="+ Visit(usaCity: UsaCity): void" style="text;html=1;strokeColor=#666666;fillColor=#f5f5f5;align=left;verticalAlign=middle;spacingLeft=4;spacingRight=4;overflow=hidden;rotatable=0;points=[[0,0.5],[1,0.5]];portConstraint=eastwest;fontColor=#333333;" vertex="1" parent="258">
                    <mxGeometry y="132" width="250" height="20" as="geometry"/>
                </mxCell>
                <mxCell id="285" value="+ PrintInfo(): void" style="text;html=1;strokeColor=#666666;fillColor=#f5f5f5;align=left;verticalAlign=middle;spacingLeft=4;spacingRight=4;overflow=hidden;rotatable=0;points=[[0,0.5],[1,0.5]];portConstraint=eastwest;fontColor=#333333;" vertex="1" parent="258">
                    <mxGeometry y="152" width="250" height="20" as="geometry"/>
                </mxCell>
                <mxCell id="266" value="" style="endArrow=open;startArrow=none;endFill=0;startFill=0;endSize=8;html=1;verticalAlign=bottom;labelBackgroundColor=none;strokeWidth=2;sketch=0;fillColor=#f5f5f5;strokeColor=#080808;" edge="1" parent="1" source="174" target="204">
                    <mxGeometry width="160" relative="1" as="geometry">
                        <mxPoint x="106.79500000000007" y="-744.75" as="sourcePoint"/>
                        <mxPoint x="132.17821782178225" y="-669" as="targetPoint"/>
                    </mxGeometry>
                </mxCell>
                <mxCell id="269" value="UsaCity" style="swimlane;fontStyle=0;align=center;verticalAlign=top;childLayout=stackLayout;horizontal=1;startSize=30;horizontalStack=0;resizeParent=1;resizeParentMax=0;resizeLast=0;collapsible=0;marginBottom=0;html=1;fillColor=#f5f5f5;fontColor=#333333;strokeColor=#666666;" vertex="1" parent="1">
                    <mxGeometry x="470" y="-700" width="170" height="72" as="geometry"/>
                </mxCell>
                <mxCell id="270" value="+ City: string" style="text;html=1;strokeColor=#666666;fillColor=#f5f5f5;align=left;verticalAlign=middle;spacingLeft=4;spacingRight=4;overflow=hidden;rotatable=0;points=[[0,0.5],[1,0.5]];portConstraint=eastwest;fontColor=#333333;" vertex="1" parent="269">
                    <mxGeometry y="30" width="170" height="20" as="geometry"/>
                </mxCell>
                <mxCell id="271" value="" style="line;strokeWidth=2;align=left;verticalAlign=middle;spacingTop=-1;spacingLeft=3;spacingRight=3;rotatable=0;labelPosition=right;points=[];portConstraint=eastwest;labelBackgroundColor=#D1AEFC;labelBorderColor=none;shadow=0;" vertex="1" parent="269">
                    <mxGeometry y="50" width="170" height="2" as="geometry"/>
                </mxCell>
                <mxCell id="272" value="+ Accept(visitor: IVisitor): void" style="text;html=1;strokeColor=#666666;fillColor=#f5f5f5;align=left;verticalAlign=middle;spacingLeft=4;spacingRight=4;overflow=hidden;rotatable=0;points=[[0,0.5],[1,0.5]];portConstraint=eastwest;fontColor=#333333;" vertex="1" parent="269">
                    <mxGeometry y="52" width="170" height="20" as="geometry"/>
                </mxCell>
                <mxCell id="273" value="" style="endArrow=block;startArrow=none;endFill=0;startFill=0;endSize=8;html=1;verticalAlign=bottom;dashed=1;labelBackgroundColor=none;sketch=0;strokeWidth=2;fillColor=#f5f5f5;strokeColor=#080808;" edge="1" parent="1" source="269" target="174">
                    <mxGeometry width="160" relative="1" as="geometry">
                        <mxPoint x="430" y="-782.1291304347825" as="sourcePoint"/>
                        <mxPoint x="360" y="-785.2471428571429" as="targetPoint"/>
                        <Array as="points"/>
                    </mxGeometry>
                </mxCell>
                <mxCell id="274" value="NetherlandCity" style="swimlane;fontStyle=0;align=center;verticalAlign=top;childLayout=stackLayout;horizontal=1;startSize=30;horizontalStack=0;resizeParent=1;resizeParentMax=0;resizeLast=0;collapsible=0;marginBottom=0;html=1;fillColor=#f5f5f5;fontColor=#333333;strokeColor=#666666;" vertex="1" parent="1">
                    <mxGeometry x="290" y="-660" width="170" height="72" as="geometry"/>
                </mxCell>
                <mxCell id="275" value="+ City: string" style="text;html=1;strokeColor=#666666;fillColor=#f5f5f5;align=left;verticalAlign=middle;spacingLeft=4;spacingRight=4;overflow=hidden;rotatable=0;points=[[0,0.5],[1,0.5]];portConstraint=eastwest;fontColor=#333333;" vertex="1" parent="274">
                    <mxGeometry y="30" width="170" height="20" as="geometry"/>
                </mxCell>
                <mxCell id="276" value="" style="line;strokeWidth=2;align=left;verticalAlign=middle;spacingTop=-1;spacingLeft=3;spacingRight=3;rotatable=0;labelPosition=right;points=[];portConstraint=eastwest;labelBackgroundColor=#D1AEFC;labelBorderColor=none;shadow=0;" vertex="1" parent="274">
                    <mxGeometry y="50" width="170" height="2" as="geometry"/>
                </mxCell>
                <mxCell id="277" value="+ Accept(visitor: IVisitor): void" style="text;html=1;strokeColor=#666666;fillColor=#f5f5f5;align=left;verticalAlign=middle;spacingLeft=4;spacingRight=4;overflow=hidden;rotatable=0;points=[[0,0.5],[1,0.5]];portConstraint=eastwest;fontColor=#333333;" vertex="1" parent="274">
                    <mxGeometry y="52" width="170" height="20" as="geometry"/>
                </mxCell>
                <mxCell id="278" value="" style="endArrow=block;startArrow=none;endFill=0;startFill=0;endSize=8;html=1;verticalAlign=bottom;dashed=1;labelBackgroundColor=none;sketch=0;strokeWidth=2;fillColor=#f5f5f5;strokeColor=#080808;" edge="1" parent="1" source="274" target="174">
                    <mxGeometry width="160" relative="1" as="geometry">
                        <mxPoint x="481.7924528301887" y="-690" as="sourcePoint"/>
                        <mxPoint x="389.3396226415093" y="-730" as="targetPoint"/>
                        <Array as="points"/>
                    </mxGeometry>
                </mxCell>
                <mxCell id="279" value="" style="endArrow=open;startArrow=none;endFill=0;startFill=0;endSize=8;html=1;verticalAlign=bottom;labelBackgroundColor=none;strokeWidth=2;sketch=0;fillColor=#f5f5f5;strokeColor=#080808;" edge="1" parent="1" source="204" target="274">
                    <mxGeometry width="160" relative="1" as="geometry">
                        <mxPoint x="286.22516556291384" y="-730" as="sourcePoint"/>
                        <mxPoint x="217.54966887417208" y="-669" as="targetPoint"/>
                    </mxGeometry>
                </mxCell>
                <mxCell id="280" value="" style="endArrow=open;startArrow=none;endFill=0;startFill=0;endSize=8;html=1;verticalAlign=bottom;labelBackgroundColor=none;strokeWidth=2;sketch=0;fillColor=#f5f5f5;strokeColor=#080808;" edge="1" parent="1" source="204" target="269">
                    <mxGeometry width="160" relative="1" as="geometry">
                        <mxPoint x="270" y="-611.5531914893617" as="sourcePoint"/>
                        <mxPoint x="300" y="-612.1914893617021" as="targetPoint"/>
                        <Array as="points">
                            <mxPoint x="440" y="-530"/>
                        </Array>
                    </mxGeometry>
                </mxCell>
                <mxCell id="281" value="" style="endArrow=open;startArrow=none;endFill=0;startFill=0;endSize=8;html=1;verticalAlign=bottom;labelBackgroundColor=none;strokeWidth=2;sketch=0;fillColor=#f5f5f5;strokeColor=#080808;" edge="1" parent="1" source="204" target="193">
                    <mxGeometry width="160" relative="1" as="geometry">
                        <mxPoint x="270" y="-573.4" as="sourcePoint"/>
                        <mxPoint x="534.1044776119402" y="-618" as="targetPoint"/>
                        <Array as="points">
                            <mxPoint x="250" y="-500"/>
                            <mxPoint x="680" y="-520"/>
                            <mxPoint x="680" y="-750"/>
                        </Array>
                    </mxGeometry>
                </mxCell>
            </root>
        </mxGraphModel>
    </diagram>
</mxfile>